<svg width="574" height="235" viewBox="0 0 574 235" fill="none" xmlns="http://www.w3.org/2000/svg">
<path d="M16 188V46H110.6V65.8H38.4V108.2H98.8V126.8H38.4V188H16ZM223.672 79.4C221.939 77.4 219.072 75.3333 215.072 73.2C211.205 70.9333 206.672 69 201.472 67.4C196.272 65.8 190.872 65 185.272 65C175.805 65 168.805 66.7333 164.272 70.2C159.872 73.6667 157.672 78.4667 157.672 84.6C157.672 89.1333 158.939 92.7333 161.472 95.4C164.005 97.9333 167.872 100.133 173.072 102C178.272 103.733 184.805 105.533 192.672 107.4C202.272 109.667 210.539 112.4 217.472 115.6C224.539 118.667 229.939 122.8 233.672 128C237.539 133.2 239.472 140.067 239.472 148.6C239.472 158.333 237.139 166.2 232.472 172.2C227.805 178.2 221.472 182.6 213.472 185.4C205.605 188.067 196.939 189.4 187.472 189.4C176.672 189.4 166.205 187.733 156.072 184.4C145.939 181.067 136.872 176.333 128.872 170.2L139.072 151C141.339 153.267 144.939 155.867 149.872 158.8C154.805 161.6 160.539 164.067 167.072 166.2C173.739 168.2 180.672 169.2 187.872 169.2C196.672 169.2 203.472 167.667 208.272 164.6C213.072 161.4 215.472 156.867 215.472 151C215.472 146.2 213.872 142.4 210.672 139.6C207.605 136.667 203.139 134.267 197.272 132.4C191.539 130.4 184.605 128.333 176.472 126.2C167.139 123.8 159.339 121.067 153.072 118C146.805 114.933 142.072 111.067 138.872 106.4C135.805 101.733 134.272 95.6667 134.272 88.2C134.272 78.8667 136.539 71 141.072 64.6C145.605 58.0667 151.739 53.2 159.472 50C167.339 46.6667 176.139 45 185.872 45C195.472 45 204.339 46.5333 212.472 49.6C220.605 52.6667 227.739 56.4667 233.872 61L223.672 79.4Z" fill="white"/>
<path d="M316.2 90V61.6H335.12V65.56H320.68V74.04H332.76V77.76H320.68V90H316.2ZM343.804 65.64V60.8H348.204V65.64H343.804ZM343.804 90V69.08H348.204V90H343.804ZM377.252 90H372.852V78.28C372.852 76.3067 372.532 74.88 371.892 74C371.278 73.0933 370.358 72.64 369.132 72.64C368.278 72.64 367.425 72.8533 366.572 73.28C365.745 73.7067 364.998 74.2933 364.332 75.04C363.665 75.7867 363.185 76.6267 362.892 77.56V90H358.492V69.08H362.492V73.28C363.292 71.8933 364.452 70.7867 365.972 69.96C367.492 69.1333 369.172 68.72 371.012 68.72C372.665 68.72 373.945 69.12 374.852 69.92C375.758 70.6933 376.385 71.72 376.732 73C377.078 74.28 377.252 75.6933 377.252 77.24V90ZM385.839 83.88C385.839 82.5467 386.212 81.3867 386.959 80.4C387.705 79.3867 388.745 78.6133 390.079 78.08C391.439 77.52 392.999 77.24 394.759 77.24C395.692 77.24 396.639 77.32 397.599 77.48C398.585 77.6133 399.452 77.8133 400.199 78.08V76.76C400.199 75.2933 399.759 74.1467 398.879 73.32C397.999 72.4933 396.732 72.08 395.079 72.08C393.932 72.08 392.825 72.28 391.759 72.68C390.692 73.08 389.585 73.6667 388.439 74.44L386.959 71.48C388.345 70.5733 389.732 69.8933 391.119 69.44C392.532 68.96 394.012 68.72 395.559 68.72C398.359 68.72 400.559 69.4667 402.159 70.96C403.785 72.4267 404.599 74.52 404.599 77.24V85.04C404.599 85.5467 404.679 85.9067 404.839 86.12C405.025 86.3333 405.332 86.4533 405.759 86.48V90C405.359 90.08 404.999 90.1333 404.679 90.16C404.359 90.1867 404.092 90.2 403.879 90.2C402.919 90.2 402.199 89.9733 401.719 89.52C401.265 89.04 400.999 88.5067 400.919 87.92L400.799 86.72C399.892 87.8933 398.732 88.8 397.319 89.44C395.905 90.08 394.479 90.4 393.039 90.4C391.652 90.4 390.412 90.12 389.319 89.56C388.225 88.9733 387.372 88.1867 386.759 87.2C386.145 86.2133 385.839 85.1067 385.839 83.88ZM399.159 85.16C399.852 84.4667 400.199 83.8133 400.199 83.2V80.8C398.625 80.2133 397.025 79.92 395.399 79.92C393.799 79.92 392.492 80.2533 391.479 80.92C390.492 81.56 389.999 82.4267 389.999 83.52C389.999 84.4267 390.359 85.2667 391.079 86.04C391.825 86.7867 392.892 87.16 394.279 87.16C395.212 87.16 396.119 86.9733 396.999 86.6C397.879 86.2267 398.599 85.7467 399.159 85.16ZM433.697 90H429.297V78.28C429.297 76.3067 428.977 74.88 428.337 74C427.724 73.0933 426.804 72.64 425.577 72.64C424.724 72.64 423.87 72.8533 423.017 73.28C422.19 73.7067 421.444 74.2933 420.777 75.04C420.11 75.7867 419.63 76.6267 419.337 77.56V90H414.937V69.08H418.937V73.28C419.737 71.8933 420.897 70.7867 422.417 69.96C423.937 69.1333 425.617 68.72 427.457 68.72C429.11 68.72 430.39 69.12 431.297 69.92C432.204 70.6933 432.83 71.72 433.177 73C433.524 74.28 433.697 75.6933 433.697 77.24V90ZM453.284 90.4C451.124 90.4 449.231 89.9067 447.604 88.92C445.977 87.9067 444.711 86.5733 443.804 84.92C442.897 83.2667 442.444 81.4667 442.444 79.52C442.444 77.5733 442.884 75.7867 443.764 74.16C444.671 72.5067 445.924 71.1867 447.524 70.2C449.151 69.2133 451.071 68.72 453.284 68.72C455.444 68.72 457.297 69.2 458.844 70.16C460.417 71.0933 461.591 72.3467 462.364 73.92L458.084 75.28C457.604 74.4 456.924 73.72 456.044 73.24C455.191 72.7333 454.244 72.48 453.204 72.48C452.031 72.48 450.964 72.7867 450.004 73.4C449.071 73.9867 448.324 74.8133 447.764 75.88C447.231 76.9467 446.964 78.16 446.964 79.52C446.964 80.88 447.244 82.0933 447.804 83.16C448.391 84.2267 449.151 85.08 450.084 85.72C451.044 86.3333 452.097 86.64 453.244 86.64C454.311 86.64 455.324 86.36 456.284 85.8C457.244 85.24 457.884 84.56 458.204 83.76L462.524 85.04C461.831 86.6133 460.671 87.9067 459.044 88.92C457.417 89.9067 455.497 90.4 453.284 90.4ZM471.148 65.64V60.8H475.548V65.64H471.148ZM471.148 90V69.08H475.548V90H471.148ZM484.315 83.88C484.315 82.5467 484.689 81.3867 485.435 80.4C486.182 79.3867 487.222 78.6133 488.555 78.08C489.915 77.52 491.475 77.24 493.235 77.24C494.169 77.24 495.115 77.32 496.075 77.48C497.062 77.6133 497.929 77.8133 498.675 78.08V76.76C498.675 75.2933 498.235 74.1467 497.355 73.32C496.475 72.4933 495.209 72.08 493.555 72.08C492.409 72.08 491.302 72.28 490.235 72.68C489.169 73.08 488.062 73.6667 486.915 74.44L485.435 71.48C486.822 70.5733 488.209 69.8933 489.595 69.44C491.009 68.96 492.489 68.72 494.035 68.72C496.835 68.72 499.035 69.4667 500.635 70.96C502.262 72.4267 503.075 74.52 503.075 77.24V85.04C503.075 85.5467 503.155 85.9067 503.315 86.12C503.502 86.3333 503.809 86.4533 504.235 86.48V90C503.835 90.08 503.475 90.1333 503.155 90.16C502.835 90.1867 502.569 90.2 502.355 90.2C501.395 90.2 500.675 89.9733 500.195 89.52C499.742 89.04 499.475 88.5067 499.395 87.92L499.275 86.72C498.369 87.8933 497.209 88.8 495.795 89.44C494.382 90.08 492.955 90.4 491.515 90.4C490.129 90.4 488.889 90.12 487.795 89.56C486.702 88.9733 485.849 88.1867 485.235 87.2C484.622 86.2133 484.315 85.1067 484.315 83.88ZM497.635 85.16C498.329 84.4667 498.675 83.8133 498.675 83.2V80.8C497.102 80.2133 495.502 79.92 493.875 79.92C492.275 79.92 490.969 80.2533 489.955 80.92C488.969 81.56 488.475 82.4267 488.475 83.52C488.475 84.4267 488.835 85.2667 489.555 86.04C490.302 86.7867 491.369 87.16 492.755 87.16C493.689 87.16 494.595 86.9733 495.475 86.6C496.355 86.2267 497.075 85.7467 497.635 85.16ZM513.453 60.8H517.853V83.96C517.853 85.0267 518.013 85.7067 518.333 86C518.653 86.2933 519.053 86.44 519.533 86.44C520.067 86.44 520.573 86.3867 521.053 86.28C521.533 86.1733 521.933 86.04 522.253 85.88L522.893 89.36C522.253 89.6267 521.493 89.8533 520.613 90.04C519.733 90.2267 518.947 90.32 518.253 90.32C516.76 90.32 515.587 89.9067 514.733 89.08C513.88 88.2267 513.453 87.0533 513.453 85.56V60.8Z" fill="white"/>
<path d="M369 145.28C368.653 144.88 368.08 144.467 367.28 144.04C366.507 143.587 365.6 143.2 364.56 142.88C363.52 142.56 362.44 142.4 361.32 142.4C359.427 142.4 358.027 142.747 357.12 143.44C356.24 144.133 355.8 145.093 355.8 146.32C355.8 147.227 356.053 147.947 356.56 148.48C357.067 148.987 357.84 149.427 358.88 149.8C359.92 150.147 361.227 150.507 362.8 150.88C364.72 151.333 366.373 151.88 367.76 152.52C369.173 153.133 370.253 153.96 371 155C371.773 156.04 372.16 157.413 372.16 159.12C372.16 161.067 371.693 162.64 370.76 163.84C369.827 165.04 368.56 165.92 366.96 166.48C365.387 167.013 363.653 167.28 361.76 167.28C359.6 167.28 357.507 166.947 355.48 166.28C353.453 165.613 351.64 164.667 350.04 163.44L352.08 159.6C352.533 160.053 353.253 160.573 354.24 161.16C355.227 161.72 356.373 162.213 357.68 162.64C359.013 163.04 360.4 163.24 361.84 163.24C363.6 163.24 364.96 162.933 365.92 162.32C366.88 161.68 367.36 160.773 367.36 159.6C367.36 158.64 367.04 157.88 366.4 157.32C365.787 156.733 364.893 156.253 363.72 155.88C362.573 155.48 361.187 155.067 359.56 154.64C357.693 154.16 356.133 153.613 354.88 153C353.627 152.387 352.68 151.613 352.04 150.68C351.427 149.747 351.12 148.533 351.12 147.04C351.12 145.173 351.573 143.6 352.48 142.32C353.387 141.013 354.613 140.04 356.16 139.4C357.733 138.733 359.493 138.4 361.44 138.4C363.36 138.4 365.133 138.707 366.76 139.32C368.387 139.933 369.813 140.693 371.04 141.6L369 145.28ZM392.895 167.4C391.215 167.4 389.735 167 388.455 166.2C387.175 165.4 386.162 164.36 385.415 163.08V175.52H381.015V146.08H384.895V149.84C385.695 148.587 386.735 147.587 388.015 146.84C389.295 146.093 390.722 145.72 392.295 145.72C394.215 145.72 395.908 146.227 397.375 147.24C398.868 148.227 400.042 149.547 400.895 151.2C401.748 152.827 402.175 154.6 402.175 156.52C402.175 158.547 401.775 160.387 400.975 162.04C400.175 163.667 399.082 164.973 397.695 165.96C396.308 166.92 394.708 167.4 392.895 167.4ZM391.455 163.64C392.708 163.64 393.788 163.307 394.695 162.64C395.628 161.947 396.348 161.067 396.855 160C397.388 158.907 397.655 157.747 397.655 156.52C397.655 155.24 397.362 154.067 396.775 153C396.215 151.933 395.442 151.08 394.455 150.44C393.495 149.8 392.388 149.48 391.135 149.48C390.388 149.48 389.602 149.667 388.775 150.04C387.975 150.413 387.268 150.907 386.655 151.52C386.042 152.133 385.628 152.827 385.415 153.6V159.08C385.948 160.36 386.762 161.44 387.855 162.32C388.975 163.2 390.175 163.64 391.455 163.64ZM409.612 160.88C409.612 159.547 409.986 158.387 410.732 157.4C411.479 156.387 412.519 155.613 413.852 155.08C415.212 154.52 416.772 154.24 418.532 154.24C419.466 154.24 420.412 154.32 421.372 154.48C422.359 154.613 423.226 154.813 423.972 155.08V153.76C423.972 152.293 423.532 151.147 422.652 150.32C421.772 149.493 420.506 149.08 418.852 149.08C417.706 149.08 416.599 149.28 415.532 149.68C414.466 150.08 413.359 150.667 412.212 151.44L410.732 148.48C412.119 147.573 413.506 146.893 414.892 146.44C416.306 145.96 417.786 145.72 419.332 145.72C422.132 145.72 424.332 146.467 425.932 147.96C427.559 149.427 428.372 151.52 428.372 154.24V162.04C428.372 162.547 428.452 162.907 428.612 163.12C428.799 163.333 429.106 163.453 429.532 163.48V167C429.132 167.08 428.772 167.133 428.452 167.16C428.132 167.187 427.866 167.2 427.652 167.2C426.692 167.2 425.972 166.973 425.492 166.52C425.039 166.04 424.772 165.507 424.692 164.92L424.572 163.72C423.666 164.893 422.506 165.8 421.092 166.44C419.679 167.08 418.252 167.4 416.812 167.4C415.426 167.4 414.186 167.12 413.092 166.56C411.999 165.973 411.146 165.187 410.532 164.2C409.919 163.213 409.612 162.107 409.612 160.88ZM422.932 162.16C423.626 161.467 423.972 160.813 423.972 160.2V157.8C422.399 157.213 420.799 156.92 419.172 156.92C417.572 156.92 416.266 157.253 415.252 157.92C414.266 158.56 413.772 159.427 413.772 160.52C413.772 161.427 414.132 162.267 414.852 163.04C415.599 163.787 416.666 164.16 418.052 164.16C418.986 164.16 419.892 163.973 420.772 163.6C421.652 163.227 422.372 162.747 422.932 162.16ZM448.19 167.4C446.03 167.4 444.137 166.907 442.51 165.92C440.884 164.907 439.617 163.573 438.71 161.92C437.804 160.267 437.35 158.467 437.35 156.52C437.35 154.573 437.79 152.787 438.67 151.16C439.577 149.507 440.83 148.187 442.43 147.2C444.057 146.213 445.977 145.72 448.19 145.72C450.35 145.72 452.204 146.2 453.75 147.16C455.324 148.093 456.497 149.347 457.27 150.92L452.99 152.28C452.51 151.4 451.83 150.72 450.95 150.24C450.097 149.733 449.15 149.48 448.11 149.48C446.937 149.48 445.87 149.787 444.91 150.4C443.977 150.987 443.23 151.813 442.67 152.88C442.137 153.947 441.87 155.16 441.87 156.52C441.87 157.88 442.15 159.093 442.71 160.16C443.297 161.227 444.057 162.08 444.99 162.72C445.95 163.333 447.004 163.64 448.15 163.64C449.217 163.64 450.23 163.36 451.19 162.8C452.15 162.24 452.79 161.56 453.11 160.76L457.43 162.04C456.737 163.613 455.577 164.907 453.95 165.92C452.324 166.907 450.404 167.4 448.19 167.4ZM475.339 167.4C473.179 167.4 471.285 166.907 469.659 165.92C468.032 164.933 466.765 163.627 465.859 162C464.952 160.347 464.499 158.547 464.499 156.6C464.499 154.627 464.952 152.813 465.859 151.16C466.765 149.507 468.032 148.187 469.659 147.2C471.285 146.213 473.192 145.72 475.379 145.72C477.565 145.72 479.459 146.227 481.059 147.24C482.659 148.227 483.885 149.533 484.739 151.16C485.619 152.787 486.059 154.533 486.059 156.4C486.059 157.067 486.019 157.6 485.939 158H469.179C469.259 159.227 469.592 160.307 470.179 161.24C470.792 162.147 471.552 162.867 472.459 163.4C473.392 163.907 474.405 164.16 475.499 164.16C476.672 164.16 477.779 163.867 478.819 163.28C479.859 162.693 480.579 161.92 480.979 160.96L484.739 162.04C484.019 163.613 482.819 164.907 481.139 165.92C479.485 166.907 477.552 167.4 475.339 167.4ZM469.059 155.08H481.699C481.592 153.88 481.245 152.827 480.659 151.92C480.072 150.987 479.312 150.267 478.379 149.76C477.472 149.227 476.459 148.96 475.339 148.96C474.245 148.96 473.232 149.227 472.299 149.76C471.392 150.267 470.645 150.987 470.059 151.92C469.472 152.827 469.139 153.88 469.059 155.08Z" fill="white"/>
<rect x="262" y="108" width="312" height="12" rx="5" fill="#FF4A17"/>
</svg>
